<?xml version="1.0" standalone="no"?>
<!DOCTYPE svg PUBLIC "-//W3C//DTD SVG 20010904//EN"
 "http://www.w3.org/TR/2001/REC-SVG-20010904/DTD/svg10.dtd">
<svg version="1.0" xmlns="http://www.w3.org/2000/svg"
 width="753.000000pt" height="616.000000pt" viewBox="0 0 753.000000 616.000000"
 preserveAspectRatio="xMidYMid meet">

<g transform="translate(0.000000,616.000000) scale(0.100000,-0.100000)"
fill="#000000" stroke="none">
<path d="M3663 5876 c-92 -30 -159 -73 -251 -159 -40 -38 -76 -67 -81 -65 -5
2 -64 56 -131 121 -108 103 -126 117 -156 117 -46 0 -84 -37 -84 -82 0 -29 16
-49 125 -158 l125 -126 -35 -34 -35 -34 -37 35 c-20 18 -75 71 -122 116 -98
94 -134 109 -179 76 -20 -15 -28 -30 -30 -62 -3 -41 -2 -42 120 -161 l123
-119 -37 -37 -37 -38 -124 122 c-111 109 -128 122 -159 122 -52 0 -88 -32 -88
-78 0 -34 9 -46 127 -159 l128 -122 -35 -36 c-18 -19 -36 -35 -39 -35 -4 0
-40 34 -81 76 -159 160 -211 188 -267 149 -26 -18 -38 -67 -23 -94 6 -12 63
-72 128 -135 l117 -115 -29 -30 c-17 -17 -35 -31 -42 -31 -6 0 -38 26 -70 57
-168 163 -181 173 -223 173 -47 0 -81 -35 -81 -84 0 -27 17 -48 125 -152 l125
-120 -38 -37 -37 -36 -105 105 c-124 124 -159 149 -198 139 -44 -11 -62 -34
-62 -80 0 -41 4 -47 98 -136 53 -51 96 -98 94 -104 -2 -5 0 -7 4 -2 9 8 44
-21 44 -37 0 -13 -54 -66 -68 -66 -5 0 -63 52 -128 115 -66 63 -129 118 -141
121 -49 13 -103 -29 -103 -80 0 -26 20 -51 125 -156 l125 -126 -35 -34 -35
-34 -32 30 c-18 16 -74 68 -123 116 -50 48 -103 90 -119 94 -57 14 -111 -37
-100 -94 5 -23 39 -63 126 -147 l119 -116 -73 -77 c-146 -154 -183 -240 -183
-427 1 -99 5 -132 23 -185 31 -86 81 -160 164 -243 37 -37 68 -70 68 -72 0 -3
-57 -60 -127 -129 -122 -119 -126 -125 -119 -157 8 -41 30 -66 66 -74 42 -9
63 5 190 130 l115 114 40 -35 40 -35 -128 -122 c-110 -105 -127 -126 -127
-153 0 -50 34 -84 82 -84 37 0 47 7 122 79 44 43 101 97 126 119 l45 41 35
-34 34 -35 -126 -127 c-118 -120 -126 -130 -120 -158 11 -49 26 -66 66 -75 43
-9 41 -11 209 150 49 47 92 84 95 82 17 -8 62 -53 62 -63 0 -5 -54 -63 -120
-127 -106 -103 -120 -121 -120 -150 0 -46 38 -82 86 -82 34 0 47 10 161 122
l123 122 38 -37 37 -38 -127 -123 c-138 -132 -147 -149 -108 -199 40 -50 104
-43 160 18 14 15 65 63 113 108 l88 80 35 -34 34 -33 -125 -126 c-129 -130
-141 -151 -115 -199 12 -24 64 -45 92 -38 23 6 36 18 185 161 l82 78 40 -33
40 -34 -119 -112 c-65 -62 -122 -125 -127 -140 -13 -38 -3 -72 29 -96 48 -36
81 -19 198 98 136 137 134 136 176 93 l34 -33 -125 -125 c-109 -108 -125 -128
-125 -156 0 -41 39 -74 87 -74 34 0 55 17 221 174 29 28 57 53 63 54 5 2 39
-25 75 -60 85 -82 151 -123 249 -154 109 -35 220 -42 321 -19 136 30 211 72
339 189 28 25 53 46 56 46 3 0 58 -49 121 -110 117 -110 153 -135 185 -123 37
13 63 46 63 79 0 29 -15 48 -120 151 -66 64 -120 122 -120 128 0 14 52 65 66
65 5 0 57 -48 114 -106 141 -141 172 -157 226 -110 22 18 28 32 27 62 -1 35
-10 47 -125 156 l-123 117 37 38 37 37 63 -59 c35 -32 85 -81 112 -108 70 -69
90 -81 128 -73 46 9 68 33 68 75 0 34 -11 47 -125 161 l-125 124 36 33 37 32
31 -24 c17 -14 72 -66 121 -115 50 -50 100 -93 113 -96 54 -14 112 27 112 80
0 26 -19 49 -127 153 l-128 122 37 37 37 38 108 -107 c59 -58 117 -113 128
-121 53 -40 135 0 135 65 0 29 -16 49 -124 155 l-124 122 37 36 36 35 127
-119 c112 -105 132 -120 162 -120 48 0 79 28 80 74 1 35 -7 45 -124 161 l-125
125 36 36 c30 30 38 34 51 22 8 -7 64 -61 125 -120 102 -100 113 -108 150
-108 53 0 83 28 83 79 0 37 -7 46 -125 157 l-125 118 37 38 37 38 116 -114
c117 -116 143 -136 179 -136 30 0 70 41 77 78 7 32 2 38 -119 160 l-127 126
73 75 c127 132 176 237 185 394 10 181 -40 308 -174 444 -46 46 -84 87 -84 89
0 3 56 60 125 127 135 132 145 150 105 200 -24 31 -70 43 -101 26 -12 -6 -74
-60 -137 -120 -63 -60 -117 -109 -121 -109 -4 0 -22 15 -39 33 l-32 33 125
123 c110 108 125 126 125 155 0 45 -27 75 -72 82 -35 6 -41 3 -115 -67 -43
-40 -84 -81 -90 -90 -7 -10 -31 -32 -53 -49 l-40 -32 -35 26 c-19 15 -35 32
-35 37 0 5 54 62 120 126 66 63 123 126 126 139 9 33 -3 61 -37 85 -50 35 -77
21 -213 -112 l-122 -118 -37 37 -37 37 125 120 c115 110 125 123 125 156 0 48
-33 79 -84 79 -40 0 -47 -6 -227 -182 -27 -27 -55 -48 -62 -48 -7 0 -26 14
-43 31 l-29 30 117 115 c152 147 161 166 113 218 -50 54 -118 25 -225 -96 -23
-27 -46 -48 -51 -48 -5 0 -25 -17 -44 -37 l-34 -37 -37 38 -37 38 127 120
c118 112 126 122 126 157 0 40 -17 63 -60 79 -41 16 -76 -7 -195 -127 -60 -61
-112 -111 -115 -111 -4 0 -22 16 -40 35 l-35 36 121 117 c67 65 125 128 129
141 15 47 -30 101 -85 101 -20 0 -105 -61 -132 -96 -10 -12 -49 -49 -88 -84
l-70 -62 -30 29 c-16 15 -30 33 -30 38 0 6 54 64 120 130 104 102 120 123 120
150 0 50 -33 85 -80 85 -36 0 -48 -9 -160 -117 -67 -65 -125 -119 -129 -121
-4 -1 -37 26 -73 61 -72 69 -175 136 -253 163 -35 12 -90 18 -180 21 -116 3
-138 1 -202 -21z m268 -211 c55 -9 133 -55 204 -123 39 -37 194 -186 345 -333
151 -146 435 -420 630 -608 195 -189 355 -348 355 -354 0 -10 -295 -300 -720
-709 l-81 -78 -39 11 c-98 27 -227 -12 -298 -90 -53 -59 -70 -98 -75 -177 -4
-61 -1 -80 20 -125 36 -78 71 -114 144 -150 146 -72 319 -21 401 120 30 49 43
168 25 219 -10 30 -9 31 381 409 216 208 399 384 408 391 15 11 29 1 106 -75
96 -94 126 -143 143 -233 20 -106 -21 -222 -113 -314 -47 -46 -1090 -1055
-1310 -1266 -49 -47 -93 -86 -98 -88 -5 -2 -9 68 -9 166 l0 170 29 11 c36 16
87 68 100 104 29 75 1 174 -61 220 -73 55 -161 59 -234 11 -50 -33 -71 -61
-85 -116 -22 -82 10 -160 86 -206 l44 -27 1 -231 0 -232 -75 -73 c-77 -76
-178 -139 -221 -139 l-24 0 0 549 c0 547 0 550 21 556 30 10 88 63 106 99 19
37 21 122 3 156 -20 40 -72 90 -109 106 -115 48 -254 -29 -277 -154 -13 -69
30 -149 108 -198 l38 -24 0 -534 c0 -294 -3 -541 -6 -549 -4 -12 -12 -13 -42
-5 -72 20 -115 50 -248 176 l-134 127 0 621 0 621 24 11 c44 20 107 84 134
136 54 106 25 258 -65 337 -62 54 -117 74 -208 74 -67 0 -89 -4 -137 -28 -92
-45 -152 -129 -164 -230 -13 -106 39 -207 142 -278 l44 -30 0 -494 c0 -272 -3
-496 -8 -498 -7 -5 -583 553 -582 564 0 3 22 25 49 48 l50 41 45 -12 c87 -23
190 25 227 106 85 188 -152 363 -312 229 -60 -51 -85 -140 -59 -209 10 -26 7
-32 -39 -78 l-50 -50 -215 208 c-119 115 -216 211 -216 215 0 7 119 126 460
459 l136 132 55 -12 c183 -38 316 153 209 300 -77 107 -238 107 -324 0 -33
-43 -46 -124 -28 -177 10 -29 9 -31 -289 -318 -165 -158 -304 -289 -309 -291
-13 -5 -59 48 -85 98 -49 95 -50 211 -4 301 31 62 33 65 249 274 107 104 263
254 345 334 83 80 187 181 232 225 l82 79 168 -164 c438 -427 771 -749 800
-773 l33 -28 -7 -88 c-5 -73 -3 -98 12 -137 23 -60 86 -128 150 -161 43 -23
62 -27 135 -27 73 0 92 4 136 27 64 34 128 105 148 165 51 150 -27 312 -177
368 -37 14 -66 17 -138 13 l-90 -6 -342 331 c-188 182 -413 400 -501 486
l-158 154 117 116 c65 64 131 127 147 140 l29 23 167 -164 c154 -151 624 -605
804 -777 69 -66 76 -75 67 -98 -14 -36 -11 -120 5 -151 71 -136 263 -149 351
-24 24 35 29 53 30 100 0 75 -26 127 -83 163 -55 35 -105 43 -166 28 l-47 -12
-112 109 c-62 60 -249 242 -417 404 -168 162 -354 342 -413 400 l-109 105 133
127 132 128 41 -37 c23 -20 237 -226 476 -457 239 -232 459 -444 489 -472 48
-45 52 -53 42 -72 -18 -34 -13 -111 10 -160 74 -151 323 -128 368 35 15 52 14
77 -5 121 -34 83 -126 138 -211 125 -21 -3 -48 -6 -59 -7 -23 -1 -22 -2 -519
478 -468 452 -534 519 -529 528 9 14 75 38 129 47 48 8 67 7 136 -4z m943
-1114 c96 -54 94 -191 -4 -241 -128 -65 -262 56 -201 182 39 81 123 105 205
59z m-2055 -319 c69 -52 77 -138 17 -198 -74 -74 -198 -58 -240 31 -65 136 99
260 223 167z m1712 -25 c41 -28 59 -60 59 -110 0 -100 -93 -168 -187 -136 -99
32 -136 157 -67 227 48 47 140 56 195 19z m-386 -341 c84 -39 125 -103 125
-193 -1 -120 -97 -213 -220 -213 -126 0 -219 93 -220 218 0 88 43 152 130 191
60 27 123 26 185 -3z m-790 -105 c75 -35 125 -114 125 -200 0 -48 -46 -139
-76 -153 -13 -6 -24 -14 -24 -18 0 -16 -112 -42 -152 -36 -113 18 -198 113
-198 221 0 71 68 165 140 194 42 17 141 12 185 -8z m1286 -375 c69 -29 139
-130 139 -200 0 -79 -67 -171 -146 -201 -93 -35 -216 3 -270 84 -31 47 -42
132 -24 185 16 50 66 105 115 127 48 22 139 25 186 5z m-1812 -153 c42 -33 65
-85 56 -132 -8 -40 -72 -111 -101 -112 -11 0 -27 -2 -37 -4 -23 -4 -74 13
-108 36 -36 25 -55 95 -39 144 32 97 145 131 229 68z m1091 -72 c40 -21 80
-83 80 -124 0 -28 -23 -81 -44 -102 -37 -37 -124 -47 -176 -20 -66 34 -90 132
-47 195 44 65 121 86 187 51z m457 -436 c32 -22 63 -74 63 -108 0 -43 -25 -92
-59 -116 -111 -79 -266 19 -232 147 26 93 142 133 228 77z"/>
<path d="M545 5852 c-77 -27 -142 -77 -186 -145 -51 -79 -64 -124 -64 -227 0
-72 4 -92 24 -127 27 -48 79 -86 137 -102 100 -28 295 4 313 52 17 45 54 264
48 280 -5 15 -24 17 -121 17 -128 0 -136 -4 -136 -69 l0 -31 61 0 c48 0 60 -3
56 -14 -3 -7 -8 -34 -12 -59 -4 -26 -14 -52 -22 -58 -22 -19 -125 -17 -156 4
-45 29 -60 62 -59 127 2 114 78 225 174 250 54 15 133 7 192 -18 51 -23 61
-18 72 37 5 23 2 37 -11 51 -43 48 -213 65 -310 32z"/>
<path d="M528 5023 c-8 -10 -49 -79 -91 -153 -41 -74 -103 -184 -136 -244 -49
-87 -61 -117 -61 -153 l0 -44 47 3 c47 3 47 3 82 70 l36 68 111 0 111 0 9 -67
9 -68 63 -3 62 -3 0 38 c0 47 -75 547 -85 562 -3 6 -36 11 -74 11 -52 0 -71
-4 -83 -17z m71 -239 c17 -135 22 -124 -64 -124 -41 0 -75 3 -75 6 0 15 116
222 121 216 4 -4 12 -48 18 -98z"/>
<path d="M364 4188 c-12 -18 -124 -570 -118 -580 3 -4 32 -8 64 -8 54 0 60 2
65 23 3 12 14 64 24 115 10 51 21 96 24 99 13 12 78 -9 92 -31 12 -17 44 -161
45 -198 0 -15 130 -9 136 5 7 19 -31 189 -52 228 -12 25 -14 34 -4 37 21 7 81
64 95 91 43 85 22 176 -49 210 -36 18 -61 21 -179 21 -93 0 -138 -4 -143 -12z
m210 -88 c62 -23 50 -117 -18 -145 -45 -19 -120 -20 -113 -2 2 6 10 45 17 85
l13 72 38 0 c21 0 49 -4 63 -10z"/>
<path d="M514 3432 c-7 -4 -69 -110 -139 -237 -70 -126 -134 -239 -141 -250
-8 -11 -14 -41 -14 -67 l0 -48 44 0 45 0 38 70 38 70 111 0 111 0 9 -67 9 -68
63 -3 62 -3 0 39 c0 47 -75 547 -85 562 -7 11 -134 14 -151 2z m65 -248 c17
-135 22 -124 -64 -124 -41 0 -75 3 -75 6 0 17 115 222 121 216 4 -4 12 -48 18
-98z"/>
<path d="M298 2623 c-17 -19 -131 -559 -122 -574 3 -5 28 -9 55 -9 42 0 51 3
59 23 11 26 80 369 80 401 0 11 31 -69 69 -179 37 -110 73 -210 80 -222 10
-20 20 -23 75 -23 41 0 68 5 75 13 10 13 121 537 121 573 0 12 -11 14 -57 12
l-57 -3 -37 -180 c-21 -99 -38 -193 -39 -210 -1 -19 -25 43 -65 163 -34 106
-71 202 -81 213 -24 26 -133 28 -156 2z"/>
<path d="M270 1771 c-5 -11 -10 -36 -10 -55 l0 -36 79 0 78 0 -48 -241 c-27
-133 -46 -245 -43 -250 8 -14 110 -11 121 4 6 6 27 98 47 202 21 105 42 211
48 237 l9 47 82 3 81 3 14 37 c26 69 29 68 -222 68 -213 0 -226 -1 -236 -19z"/>
<path d="M1378 1050 c-5 -14 -23 -88 -39 -164 -16 -76 -42 -196 -59 -265 -38
-161 -90 -414 -90 -435 0 -14 14 -16 90 -16 108 0 97 -15 140 190 16 80 43
206 60 280 68 303 90 415 85 428 -3 10 -27 12 -91 10 -82 -2 -87 -3 -96 -28z"/>
<path d="M5664 1072 c-12 -7 -46 -153 -38 -161 8 -8 169 -10 181 -3 7 4 19 41
28 82 12 59 13 75 3 82 -16 10 -159 10 -174 0z"/>
<path d="M3325 1032 c-160 -92 -173 -102 -180 -134 -13 -68 -14 -68 -60 -68
l-43 0 -11 -50 c-18 -83 -16 -90 24 -90 44 0 44 -3 6 -180 -45 -207 -47 -238
-19 -280 37 -55 79 -71 168 -66 41 2 82 7 91 11 9 3 21 28 27 56 18 79 18 79
-38 79 -34 0 -52 5 -58 16 -8 15 50 339 64 353 3 3 28 8 56 11 l52 5 13 50
c21 83 20 85 -37 85 -27 0 -50 2 -50 4 0 2 9 48 20 101 27 132 28 127 -25 97z"/>
<path d="M763 835 c-170 -46 -282 -220 -262 -408 11 -107 72 -199 157 -239
102 -47 261 -32 350 32 43 31 102 103 102 125 0 13 -29 23 -85 31 -16 3 -40 7
-53 10 -18 4 -32 -5 -61 -37 -32 -36 -43 -42 -86 -46 -62 -5 -109 21 -131 72
-28 68 -38 65 211 65 266 0 251 -8 242 129 -6 108 -27 161 -85 211 -74 66
-183 86 -299 55z m126 -135 c26 0 56 -30 69 -69 25 -72 27 -71 -118 -71 -122
0 -130 1 -130 19 0 51 105 139 148 125 8 -2 22 -4 31 -4z"/>
<path d="M1880 844 c-127 -22 -209 -82 -270 -196 -29 -55 -34 -73 -38 -157 -5
-125 16 -188 87 -254 63 -59 132 -80 240 -76 103 5 178 42 238 119 63 80 63
80 -61 99 -57 8 -59 8 -85 -21 -48 -55 -120 -75 -169 -49 -30 16 -62 69 -62
104 l0 27 220 0 c255 0 235 -10 235 115 0 135 -44 218 -144 269 -30 16 -146
28 -191 20z m107 -156 c26 -13 53 -65 53 -102 l0 -26 -130 0 c-88 0 -130 4
-130 11 0 6 7 26 16 44 38 80 115 109 191 73z"/>
<path d="M2575 837 c-168 -43 -278 -180 -292 -362 -10 -131 41 -234 141 -288
34 -18 57 -22 141 -22 91 0 105 3 159 30 83 42 178 159 163 199 -3 7 -29 16
-59 19 -30 4 -68 9 -85 13 -28 5 -33 2 -53 -34 -25 -44 -83 -82 -125 -82 -16
0 -38 11 -56 29 -26 26 -29 36 -29 93 0 69 29 168 59 205 30 36 84 63 124 63
45 0 97 -44 97 -81 0 -21 2 -21 82 -14 46 4 86 9 90 11 5 3 8 16 8 30 0 63
-61 141 -138 176 -54 24 -162 31 -227 15z"/>
<path d="M3805 832 c-22 -11 -47 -25 -55 -33 -8 -8 -24 -21 -34 -29 -18 -14
-19 -13 -12 23 l7 38 -92 -3 -93 -3 -17 -85 c-10 -47 -40 -190 -68 -318 -28
-128 -49 -238 -46 -243 9 -14 171 -11 183 4 5 6 24 79 41 160 37 177 60 235
113 282 49 45 83 58 129 51 l36 -6 36 73 c30 61 34 74 22 86 -22 23 -104 24
-150 3z"/>
<path d="M4212 839 c-24 -4 -64 -18 -89 -31 -51 -25 -146 -115 -140 -132 2 -6
34 -12 71 -14 65 -3 67 -2 100 33 35 36 59 42 99 24 75 -34 48 -139 -37 -139
-20 0 -39 11 -62 35 -32 34 -35 35 -107 35 -48 0 -78 -5 -84 -12 -23 -29 -37
-98 -38 -178 0 -68 5 -95 23 -135 28 -62 71 -107 124 -131 47 -21 51 -18 68
69 11 59 11 60 -15 84 -56 53 -9 143 67 129 39 -7 73 -54 63 -86 -9 -28 -45
-60 -66 -60 -13 0 -21 -17 -35 -75 -10 -41 -14 -78 -10 -82 4 -5 53 -8 109 -8
111 0 165 17 230 71 117 98 178 290 133 417 -25 69 -85 141 -104 123 -6 -7
-53 -235 -54 -262 0 -12 9 -31 21 -43 20 -20 25 -38 22 -71 -3 -24 -50 -60
-77 -60 -34 0 -74 42 -74 78 0 31 36 72 63 72 9 0 18 3 20 8 3 4 19 72 37 151
31 140 32 145 14 158 -51 37 -173 52 -272 32z"/>
<path d="M5149 841 c-20 -4 -62 -22 -93 -40 l-58 -32 4 28 3 28 -84 3 c-46 2
-88 -1 -92 -5 -16 -16 -150 -635 -140 -646 4 -4 48 -7 97 -5 l89 3 33 155 c19
85 40 179 48 208 32 117 164 202 232 149 20 -16 14 -64 -34 -286 -25 -116 -42
-216 -39 -221 9 -15 170 -13 183 3 5 6 29 100 53 207 52 237 58 336 21 388
-13 18 -37 39 -54 48 -36 18 -118 26 -169 15z"/>
<path d="M6170 844 c-207 -40 -329 -202 -318 -423 9 -180 112 -270 297 -259
97 6 164 35 224 96 45 47 95 128 84 138 -3 4 -43 13 -89 21 -82 14 -83 14 -98
-8 -76 -111 -179 -132 -216 -44 -18 44 -18 86 1 160 29 112 91 175 172 175 34
0 46 -5 67 -31 14 -17 26 -40 26 -51 0 -20 4 -20 81 -13 107 9 109 10 102 48
-21 112 -110 183 -240 191 -37 3 -79 2 -93 0z"/>
<path d="M6809 837 c-106 -24 -187 -99 -196 -181 -7 -58 1 -87 33 -126 32 -38
71 -57 194 -100 52 -17 101 -37 108 -42 43 -35 -24 -88 -111 -88 -49 0 -61 4
-92 31 -19 17 -35 38 -35 47 0 13 -11 14 -74 9 -40 -4 -85 -11 -100 -16 -23
-9 -25 -13 -15 -38 41 -111 133 -163 300 -171 113 -5 183 11 247 58 78 56 111
164 73 237 -31 61 -88 94 -245 142 -78 24 -96 35 -96 62 0 27 39 49 87 49 53
0 91 -14 125 -47 24 -22 32 -25 70 -19 128 20 139 33 87 105 -59 83 -215 121
-360 88z"/>
<path d="M5600 800 c-21 -77 -120 -535 -126 -581 l-7 -49 92 0 c108 0 97 -14
135 176 14 71 43 206 65 299 22 94 37 173 33 177 -4 4 -47 8 -95 10 l-88 3 -9
-35z"/>
</g>
</svg>
